<svg width="1248px" height="338px" class="_ViewportContainer-module__viewport__3SU_V" viewBox="-189.58995815899578 135.31938633193863 891.1799163179916 241.36122733612274" style="position: relative; top: 0px; left: 0px; width: 1248px; height: 338px;"><defs><pattern id="o_ej6mfeb7n_3" class="pattern-dotted" x="0" y="0" width="22.850767085076708" height="22.850767085076708" patternUnits="userSpaceOnUse"><rect x="0" y="0" width="22.850767085076708" height="22.850767085076708"></rect><circle cx="0" cy="0" r="1.0711297071129706"></circle><circle cx="22.850767085076708" cy="0" r="1.0711297071129706"></circle><circle cx="22.850767085076708" cy="22.850767085076708" r="1.0711297071129706"></circle><circle cx="0" cy="22.850767085076708" r="1.0711297071129706"></circle></pattern></defs><rect class="_ViewportContainer-module__background__1DPKg" fill="url(#o_ej6mfeb7n_3)" stroke-width="0.7140864714086471" x="0" y="0" width="512" height="512"></rect><svg xmlns="http://www.w3.org/2000/svg" width="512" height="512" style="overflow: visible;" viewBox="0 0 512 512" data-svgdocument="" id="_vw4yvwVRw4PA-oKQ2ZZ-t" class="fl-svgdocument" x="0" y="0" xmlns:xlink="http://www.w3.org/1999/xlink"><defs id="_mnjX9QF5-fBgngD5n_HW2" transform="matrix(1.3926469087600708, 0, 0, 1.3926469087600708, 6.607828140258789, 29.784015655517578)" data-uid="o_ej6mfeb7n_5"></defs><path id="_AmzD3-ucEMDzk2PzEHWPV" d="M229.09,241.19V52.78A14.25,14.25,0,0,0,220,39.47L119.66.95a14.25,14.25,0,0,0-10.22,0L9.14,39.47A14.25,14.25,0,0,0,0,52.78V241.19a14.25,14.25,0,0,0,9.14,13.3L109.44,293a14.25,14.25,0,0,0,10.22,0L220,254.49A14.25,14.25,0,0,0,229.09,241.19Z" fill="#0b1a47" transform="matrix(2.094661716065689, 0, 0, 1.64707619219614, 16.06694960261767, 14.99207437971664)" data-uid="o_ej6mfeb7n_6"></path><g id="_1PW4mB7ZAEe95RiSP_s4o" transform="matrix(0.8455891013145447, 0, 0, 0.8455891013145447, -40.20077482655947, 75.71787398468493)" data-uid="o_ej6mfeb7n_7"><path id="_9u_FFoSmIyXp5mKWWlFht" fill="#ffffff" transform="matrix(0.12296082824468613, 0, 0, 0.12296082824468613, 137.1800079345703, 148.27865600585938)" data-type="circle" data-cx="88.385" data-cy="88.385" data-r="88.385" d="M88.385,88.385m-88.385,0a88.385,88.385 0 1, 0 176.77,0a88.385,88.385 0 1, 0 -176.77,0" data-uid="o_ej6mfeb7n_8"></path><path id="_vGA5zjacm0d9sWpRD1Gzh" fill="#ffffff" transform="matrix(0.12296082824468613, 0, 0, 0.12296082824468613, 541.6627123620863, 148.27865600585938)" data-type="circle" data-cx="88.385" data-cy="88.385" data-r="88.385" d="M88.385,88.385m-88.385,0a88.385,88.385 0 1, 0 176.77,0a88.385,88.385 0 1, 0 -176.77,0" data-uid="o_ej6mfeb7n_9"></path></g><path text="covcough" text-anchor="middle" font-size="100" letter-spacing="0" side="left" offset="0.5" dx="0" dy="0" space="preserve" href="" font-family="Pathway Gothic One" font-scale="contain" transform="matrix(1.232769071144306, 0, 0, 1.232769071144306, 256.4314578885626, 406.84843345471546)" x="0" y="0" fill="#e8de56" data-fl-textpath="" id="_7IgoEG7CI_NxiQ0EfqW38" data-uid="o_ej6mfeb7n_10" d="M-115.90000000000002-15.7Q-116.70000000000002-6 -120.20000000000002-2.25Q-123.70000000000002 1.5 -129.75000000000003 1.5Q-135.8 1.5 -139.3-2.75Q-142.8-7 -142.8-17.5L-142.8-17.5L-142.8-34.5Q-142.8-46.4 -139.3-50.95Q-135.8-55.5 -129.75000000000003-55.5Q-123.70000000000002-55.5 -120.30000000000001-52.2Q-116.90000000000002-48.9 -116.20000000000002-40.3L-116.20000000000002-40.3L-123.20000000000002-38.4Q-123.60000000000002-49.3 -129.3-49.3L-129.3-49.3Q-132.20000000000002-49.3 -133.70000000000002-46.7Q-135.20000000000002-44.1 -135.20000000000002-35.9L-135.20000000000002-35.9L-135.20000000000002-16.8Q-135.20000000000002-9.8 -133.65-7.3Q-132.10000000000002-4.8 -129.20000000000002-4.8Q-126.30000000000001-4.8 -124.70000000000002-7.25Q-123.10000000000002-9.7 -122.40000000000002-16.7L-122.40000000000002-16.7L-115.90000000000002-15.7ZM-80.10000000000002-34.5L-80.10000000000002-34.5L-80.10000000000002-19.5Q-80.10000000000002-7.6 -83.75000000000003-3.05Q-87.40000000000002 1.5 -94.15000000000002 1.5Q-100.90000000000002 1.5 -104.55000000000003-3.05Q-108.20000000000002-7.6 -108.20000000000002-19.5L-108.20000000000002-19.5L-108.20000000000002-34.5Q-108.20000000000002-46.4 -104.55000000000003-50.95Q-100.90000000000002-55.5 -94.15000000000002-55.5Q-87.40000000000002-55.5 -83.75000000000003-50.95Q-80.10000000000002-46.4 -80.10000000000002-34.5ZM-87.80000000000003-18.1L-87.80000000000003-18.1L-87.80000000000003-35.9Q-87.80000000000003-49.3 -94.10000000000002-49.3L-94.10000000000002-49.3Q-100.60000000000002-49.3 -100.60000000000002-35.9L-100.60000000000002-35.9L-100.60000000000002-18.1Q-100.60000000000002-4.7 -94.10000000000002-4.7L-94.10000000000002-4.7Q-87.80000000000003-4.7 -87.80000000000003-18.1ZM-73.60000000000002-54L-65.80000000000001-54L-58.100000000000016-12.1L-50.30000000000002-54L-42.600000000000016-54L-53.90000000000002 0L-62.20000000000002 0L-73.60000000000002-54ZM-9.200000000000014-15.7Q-10.000000000000014-6 -13.500000000000014-2.25Q-17.000000000000014 1.5 -23.050000000000015 1.5Q-29.100000000000016 1.5 -32.600000000000016-2.75Q-36.100000000000016-7 -36.100000000000016-17.5L-36.100000000000016-17.5L-36.100000000000016-34.5Q-36.100000000000016-46.4 -32.600000000000016-50.95Q-29.100000000000016-55.5 -23.050000000000015-55.5Q-17.000000000000014-55.5 -13.600000000000016-52.2Q-10.200000000000014-48.9 -9.500000000000014-40.3L-9.500000000000014-40.3L-16.500000000000014-38.4Q-16.900000000000013-49.3 -22.600000000000016-49.3L-22.600000000000016-49.3Q-25.500000000000014-49.3 -27.000000000000014-46.7Q-28.500000000000014-44.1 -28.500000000000014-35.9L-28.500000000000014-35.9L-28.500000000000014-16.8Q-28.500000000000014-9.8 -26.950000000000014-7.3Q-25.400000000000013-4.8 -22.500000000000014-4.8Q-19.600000000000016-4.8 -18.000000000000014-7.25Q-16.400000000000013-9.7 -15.700000000000014-16.7L-15.700000000000014-16.7L-9.200000000000014-15.7ZM 26.599999999999987-34.5L 26.599999999999987-34.5L 26.599999999999987-19.5Q 26.599999999999987-7.6  22.94999999999999-3.05Q 19.299999999999986 1.5  12.549999999999986 1.5Q 5.7999999999999865 1.5  2.149999999999988-3.05Q-1.5000000000000124-7.6 -1.5000000000000124-19.5L-1.5000000000000124-19.5L-1.5000000000000124-34.5Q-1.5000000000000124-46.4  2.149999999999988-50.95Q 5.7999999999999865-55.5  12.549999999999986-55.5Q 19.299999999999986-55.5  22.94999999999999-50.95Q 26.599999999999987-46.4  26.599999999999987-34.5ZM 18.899999999999988-18.1L 18.899999999999988-18.1L 18.899999999999988-35.9Q 18.899999999999988-49.3  12.599999999999987-49.3L 12.599999999999987-49.3Q 6.099999999999987-49.3  6.099999999999987-35.9L 6.099999999999987-35.9L 6.099999999999987-18.1Q 6.099999999999987-4.7  12.599999999999987-4.7L 12.599999999999987-4.7Q 18.899999999999988-4.7  18.899999999999988-18.1ZM 56.59999999999998-14.5L 56.59999999999998-54L 64.19999999999999-54L 64.19999999999999 0L 59.499999999999986 0L 57.89999999999998-6.6Q 55.59999999999998 1.5  48.19999999999998 1.5L 48.19999999999998 1.5Q 42.69999999999998 1.5  39.899999999999984-1.9Q 37.09999999999998-5.3  37.09999999999998-14.9L 37.09999999999998-14.9L 37.09999999999998-54L 44.69999999999998-54L 44.69999999999998-14.3Q 44.69999999999998-8.8  46.04999999999998-6.8Q 47.399999999999984-4.8  50.09999999999998-4.8L 50.09999999999998-4.8Q 56.19999999999998-4.8  56.59999999999998-14.5L 56.59999999999998-14.5ZM 106.39999999999999-55.5L 107.5-55.5L 107.5-47.6L 101.6-47.6Q 103.3-43.3  103.3-36.2L 103.3-36.2L 103.3-35.3Q 103.3-24.2  99.85-20.1Q 96.39999999999999-16  89.19999999999999-16L 89.19999999999999-16Q 86.39999999999999-16  84.1-16.6L 84.1-16.6Q 81.89999999999999-15  81.89999999999999-11.6L 81.89999999999999-11.6Q 81.89999999999999-5.6  87.39999999999999-5.6L 87.39999999999999-5.6L 93.6-5.6Q 106-5.6  106 6.95Q 106 19.5  93.6 19.5L 93.6 19.5L 84.8 19.5Q 72.5 19.5  72.5 6.9L 72.5 6.9Q 72.5-1.7  78.3-4.4L 78.3-4.4Q 75.89999999999999-6.3  75.89999999999999-11.3Q 75.89999999999999-16.3  80.19999999999999-18.5L 80.19999999999999-18.5Q 75.3-22.6  75.3-35.3L 75.3-35.3L 75.3-36.2Q 75.3-47.3  78.69999999999999-51.4Q 82.1-55.5  88.64999999999999-55.5Q 95.19999999999999-55.5  98.6-52.4L 98.6-52.4L 106.39999999999999-55.5ZM 95.69999999999999-33.5L 95.69999999999999-33.5L 95.69999999999999-38Q 95.69999999999999-44.8  94.05-47.3Q 92.39999999999999-49.8  89.35-49.8Q 86.3-49.8  84.6-47.3Q 82.89999999999999-44.8  82.89999999999999-38L 82.89999999999999-38L 82.89999999999999-33.5Q 82.89999999999999-26.7  84.6-24.2Q 86.3-21.7  89.35-21.7Q 92.39999999999999-21.7  94.05-24.2Q 95.69999999999999-26.7  95.69999999999999-33.5ZM 94.19999999999999 0.6L 94.19999999999999 0.6L 84.19999999999999 0.6Q 79.69999999999999 0.6  79.69999999999999 6.85Q 79.69999999999999 13.1  84.19999999999999 13.1L 84.19999999999999 13.1L 94.19999999999999 13.1Q 98.69999999999999 13.1  98.69999999999999 6.85Q 98.69999999999999 0.6  94.19999999999999 0.6ZM 121.9-27.9L 121.9 0L 114.2 0L 114.2-74L 121.5-74L 121.5-47.6Q 123.9-55.5  131.4-55.5L 131.4-55.5Q 136.6-55.5  139.35-50.9Q 142.10000000000002-46.3  142.10000000000002-34.1L 142.10000000000002-34.1L 142.10000000000002 0L 134.4 0L 134.4-36.8Q 134.4-49.3  129.5-49.3L 129.5-49.3Q 122.10000000000001-49.3  121.9-27.9L 121.9-27.9Z"></path><g transform="matrix(3.8133485838003263, 0, 0, 3.8133485838003263, 132.06617102648937, 66.21997829384199)" stroke="#ffffff" stroke-width="1" data-uid="o_ej6mfeb7n_11"><path d="M57.07,48.9C57.9,45.95,63,27.55,63,20c0-9.93-9.42-18-21-18C33.15,2,24,6.49,24,14V24.68l-4.81,6.74a1,1,0,0,0,.26,1.41L22,34.54V39a1,1,0,0,0,.76.97l6.14,1.54a1,1,0,0,1,.14,1.89l-6.42,2.68A.987.987,0,0,0,22,47v3a1,1,0,0,0,1,1H36V61a1,1,0,0,0,1,1H62a1,1,0,0,0,.89-1.45ZM38,60V50a1,1,0,0,0-1-1H24V47.67l5.81-2.42a3,3,0,0,0-.43-5.68L24,38.22V34a1,1,0,0,0-.45-.83l-2.14-1.43,4.4-6.16A1,1,0,0,0,26,25V14C26,7.74,34.13,4,42,4c10.48,0,19,7.18,19,16,0,7.77-5.9,28.52-5.96,28.73a.953.953,0,0,0,.07.72L60.38,60Z" transform="matrix(1, 0, 0, 1, 0, 0)" stroke="#ffffff" stroke-width="1" data-uid="o_ej6mfeb7n_12"></path><path transform="matrix(1, 0, 0, 1, 0, 0)" stroke="#ffffff" stroke-width="1" data-type="rect" data-x="10" data-y="42" data-width="6" data-height="2" d="M10,42H16,V44,H10,Z" data-uid="o_ej6mfeb7n_13"></path><path transform="matrix(1, 0, 0, 1, 0, 0)" stroke="#ffffff" stroke-width="1" data-type="rect" data-x="2" data-y="42" data-width="6" data-height="2" d="M2,42H8,V44,H2,Z" data-uid="o_ej6mfeb7n_14"></path><path transform="matrix(0.8660690188407898, -0.4999244213104248, 0.4999244213104248, 0.8660690188407898, -22.915000915527344, 13.463000297546387)" stroke="#ffffff" stroke-width="1" data-type="rect" data-x="10.67" data-y="48.5" data-width="5.999" data-height="2" d="M10.67,48.5H16.669,V50.5,H10.67,Z" data-uid="o_ej6mfeb7n_15"></path><path transform="matrix(0.8660690188407898, -0.4999244213104248, 0.4999244213104248, 0.8660690188407898, -25.843000411987305, 10.53499984741211)" stroke="#ffffff" stroke-width="1" data-type="rect" data-x="3.742" data-y="52.5" data-width="6" data-height="2" d="M3.742,52.5H9.742,V54.5,H3.742,Z" data-uid="o_ej6mfeb7n_16"></path><path transform="matrix(0.5000605583190918, -0.8659904599189758, 0.8659904599189758, 0.5000605583190918, -25.641000747680664, 30.586000442504883)" stroke="#ffffff" stroke-width="1" data-type="rect" data-x="12.67" data-y="34.5" data-width="2" data-height="5.999" d="M12.67,34.5H14.67,V40.499,H12.67,Z" data-uid="o_ej6mfeb7n_17"></path><path transform="matrix(0.49998489022254944, -0.8660340905189514, 0.8660340905189514, 0.49998489022254944, -25.641000747680664, 22.589000701904297)" stroke="#ffffff" stroke-width="1" data-type="rect" data-x="5.742" data-y="30.5" data-width="2" data-height="6" d="M5.742,30.5H7.742,V36.5,H5.742,Z" data-uid="o_ej6mfeb7n_18"></path><path transform="matrix(1, 0, 0, 1, 0, 0)" stroke="#ffffff" stroke-width="1" data-type="rect" data-x="18" data-y="42" data-width="6" data-height="2" d="M18,42H24,V44,H18,Z" data-uid="o_ej6mfeb7n_19"></path><path transform="matrix(1, 0, 0, 1, 0, 0)" stroke="#ffffff" stroke-width="1" data-type="rect" data-x="18" data-y="38" data-width="2" data-height="2" d="M18,38H20,V40,H18,Z" data-uid="o_ej6mfeb7n_20"></path><path transform="matrix(1, 0, 0, 1, 0, 0)" stroke="#ffffff" stroke-width="1" data-type="rect" data-x="18" data-y="46" data-width="2" data-height="2" d="M18,46H20,V48,H18,Z" data-uid="o_ej6mfeb7n_21"></path><path d="M44.913,34.038a4.919,4.919,0,0,0-5.448,1.084L38,36.586V35H36v4a1,1,0,0,0,1,1h4V38H39.414l1.465-1.464A3,3,0,0,1,46,38.657V56h2V38.657A4.921,4.921,0,0,0,44.913,34.038Z" transform="matrix(1, 0, 0, 1, 0, 0)" stroke="#ffffff" stroke-width="1" data-uid="o_ej6mfeb7n_22"></path><path d="M56,21h3V19H56.8l-1.825-8.217A1,1,0,0,0,54.061,10a.992.992,0,0,0-1,.665L48.2,24.425l-2.226-9.65a1,1,0,0,0-1.832-.29l-1.758,2.931L39.97,7.757A1,1,0,0,0,39.013,7a.981.981,0,0,0-.977.732L34.2,21.53l-1.221-6.709a1,1,0,0,0-1.912-.193L29.323,19H28v2h2a1,1,0,0,0,.929-.628l.709-1.774,1.379,7.581a1,1,0,0,0,1.947.089l3.985-14.349,2.081,8.324a1,1,0,0,0,1.827.272l1.726-2.876,2.442,10.586a1,1,0,0,0,.918.774H48a1,1,0,0,0,.943-.667l4.838-13.708,1.242,5.592A1,1,0,0,0,56,21Z" transform="matrix(1, 0, 0, 1, 0, 0)" stroke="#ffffff" stroke-width="1" data-uid="o_ej6mfeb7n_23"></path></g></svg><path class="_CanvasObfuscator-module__canvasObfuscator__3YTU6" d="M-189.58995815899578 135.31938633193863h891.1799163179916v241.36122733612274h-891.1799163179916z M0 0v512h512v-512z" style=""></path><g><path class="_BoundingBoxPath-module__container__3nKEI _sw1" d="M6.607828140258789 29.784015655517578L 6.607828140258789 29.784015655517578L6.607828140258789 29.784015655517578L6.607828140258789 29.784015655517578 Z" fill="transparent" stroke="red"></path><path class="_BoundingBoxPath-module__container__3nKEI _sw1" d="M75.79714480115595 201.10068946080807L 436.20285519884396 201.10068946080807L436.20285519884396 219.4802333243563L75.79714480115595 219.4802333243563 Z" fill="transparent" stroke="red"></path><path class="_BoundingBoxPath-module__container__3nKEI _sw1" d="M80.39203076704305 315.62352219003685L 431.607969232957 315.62352219003685L431.607969232957 430.8874303420294L80.39203076704305 430.8874303420294 Z" fill="transparent" stroke="red"></path><path class="_BoundingBoxPath-module__container__3nKEI _sw1" d="M137.78619390218986 71.94000116954248L 374.2138060978101 71.94000116954248L374.2138060978101 304.55426478136235L137.78619390218986 304.55426478136235 Z" fill="transparent" stroke="red"></path></g><g class="_TransformBox-module__transformBox__20kd4"><defs><pattern id="pattern-scalebox" x="0" y="0" width="100%" height="100%"><circle cx="8.569037656903765" cy="8.569037656903765" r="3.927475592747559" stroke-width="1.4281729428172942"></circle></pattern><pattern id="pattern-rotatebox" x="0" y="0" width="100%" height="100%"><path transform="scale(0.7140864714086471) translate(5, 10.5)" d="M18,13c0,3.31-2.69,6-6,6s-6-2.69-6-6s2.69-6,6-6v2.5l3.5-3.5l-3.5-3.5v2.5c-4.42,0-8,3.58-8,8c0,4.42,3.58,8,8,8c4.42,0,8-3.58,8-8 H18z"></path></pattern></defs><path class="_TransformBox-module__cross__2ie63" d="M252.42956764295675 257.07112970711296 L259.5704323570432 257.07112970711296 M256 253.50069735006971 L256 260.6415620641562" stroke-width="0.7140864714086471"></path><path class="undefined _sw2" fill="transparent" d="M16.06694560669454 14.995815899581629 L495.93305439330544 14.995815899581629 L495.93305439330544 499.1464435146444 L16.06694560669454 499.1464435146444Z"></path><rect data-handle="nw" class="_TransformBox-module__transformHandle__2_-nd se" transform="rotate(0,16.06694560669454,14.995815899581629)" x="7.497907949790774" y="6.426778242677864" width="17.13807531380753" height="17.13807531380753"></rect><g class="_TransformBox-module__rotationHandle__1C4YA" transform="matrix(1, 0, 0, 1, 0, 0)"><line class="noevent" x1="256" y1="14.995815899581629" x2="256" y2="3.570432357043275" stroke-width="1.4281729428172942"></line><rect fill="transparent" class="_cursors-module__rotate__2JzOR" x="244.57461645746164" y="-19.28033472803343" width="22.850767085076708" height="34.27615062761506"></rect></g><rect data-handle="n" class="_TransformBox-module__transformHandle__2_-nd s" transform="rotate(0,256,14.995815899581629)" x="247.43096234309624" y="6.426778242677864" width="17.13807531380753" height="17.13807531380753"></rect><rect data-handle="ne" class="_TransformBox-module__transformHandle__2_-nd sw" transform="rotate(0,495.93305439330544,14.995815899581629)" x="487.36401673640165" y="6.426778242677864" width="17.13807531380753" height="17.13807531380753"></rect><rect data-handle="e" class="_TransformBox-module__transformHandle__2_-nd w" transform="rotate(0,495.93305439330544,257.07112970711296)" x="487.36401673640165" y="248.5020920502092" width="17.13807531380753" height="17.13807531380753"></rect><rect data-handle="se" class="_TransformBox-module__transformHandle__2_-nd nw" transform="rotate(0,495.93305439330544,499.1464435146444)" x="487.36401673640165" y="490.5774058577406" width="17.13807531380753" height="17.13807531380753"></rect><rect data-handle="s" class="_TransformBox-module__transformHandle__2_-nd n" transform="rotate(0,256,499.1464435146444)" x="247.43096234309624" y="490.5774058577406" width="17.13807531380753" height="17.13807531380753"></rect><rect data-handle="sw" class="_TransformBox-module__transformHandle__2_-nd ne" transform="rotate(0,16.06694560669454,499.1464435146444)" x="7.497907949790774" y="490.5774058577406" width="17.13807531380753" height="17.13807531380753"></rect><rect data-handle="w" class="_TransformBox-module__transformHandle__2_-nd e" transform="rotate(0,16.06694560669454,257.07112970711296)" x="7.497907949790774" y="248.5020920502092" width="17.13807531380753" height="17.13807531380753"></rect></g><g></g></svg>